<?xml version="1.0" encoding="utf-8"?>
<!-- Generator: Adobe Illustrator 17.1.0, SVG Export Plug-In . SVG Version: 6.00 Build 0)  -->
<!DOCTYPE svg PUBLIC "-//W3C//DTD SVG 1.1//EN" "http://www.w3.org/Graphics/SVG/1.1/DTD/svg11.dtd">
<svg version="1.1" id="Layer_1" xmlns="http://www.w3.org/2000/svg" xmlns:xlink="http://www.w3.org/1999/xlink" x="0px" y="0px"
	 viewBox="0 0 1000 1000" enable-background="new 0 0 1000 1000" xml:space="preserve">
<path d="M847.294495,725.064087c0.066345-0.073669,0.134827-0.145081,0.207031-0.213135
	c-2.273254-3.115051-4.217957-6.586121-6.999146-9.150513c-25.261475-23.293762-45.721497-50.624023-66.014404-78.091858
	c-10.946899-14.817322-20.822205-30.512207-32.654053-44.571167c-20.725403-24.626099-37.540283-51.946899-55.83606-78.226624
	c-16.358887-23.496857-30.847534-48.289764-46.990723-71.945129c-13.510376-19.798187-24.496399-41.0242-36.885559-61.445343
	c-10.975952-18.092529-22.091187-36.100861-33.144897-54.146332c-4.270691-6.972168-8.398682-14.037018-12.852478-20.890289
	c-4.456116-6.856934-9.017212-13.673248-14.018616-20.13092c-1.397888-1.805115-4.794434-3.526093-6.777771-3.079895
	c-3.188599,0.717773-2.540649,4.011475-1.657715,6.698395c1.066772,3.245941,1.762573,6.634216,3.055603,9.781677
	c13.229248,32.200623,25.462097,64.750702,35.616394,98.07547c5.164917,16.951416,11.414429,33.58197,16.275879,50.613953
	c6.735107,23.596893,12.673828,47.422485,18.863403,71.173676c6.697754,25.700806,13.036316,51.486084,17.518738,77.687561
	c1.784912,10.432556,0.014526,20.533386-3.80011,30.159241c-4.591248,11.585144-17.840332,16.920471-28.492981,11.166138
	c-7.130676-3.851807-13.692749-8.897339-20.089233-13.940857c-17.513977-13.808533-27.87262-33.44928-40.659668-51.064087
	c-7.210205-9.932434-13.580627-20.505554-19.893372-31.050598c-9.464966-15.809875-18.717438-31.753418-27.734406-47.823151
	c-6.339325-11.297668-14.023621-22.319824-17.765289-34.492279c-6.839996-22.252228-15.463409-43.741486-23.906219-65.343079
	c-2.480255-6.346313-4.871185-12.817444-8.19873-18.727356c-15.079376-26.781769-30.376709-53.442719-45.832855-80.009186
	c-4.09787-7.04361-8.96756-13.647827-13.692017-20.305206c-0.547089-0.770813-2.54068-0.999939-3.683258-0.72641
	c-1.133484,0.271149-2.8078,1.394745-2.927979,2.316345c-1.585754,12.15213-3.269073,23.945557,4.095642,35.575836
	c6.162445,9.731354,9.898376,20.979462,14.948914,31.439728c6.527466,13.518951,12.641022,27.297333,20.100555,40.293823
	c13.258575,23.098358,27.61908,45.561798,41.063965,68.55658c6.17981,10.569244,12.316711,21.373688,16.657379,32.763367
	c8.74231,22.939789,15.968597,46.452301,24.341644,69.539276c6.275879,17.304016,13.25058,34.359924,20.18988,51.414124
	c1.506989,3.70343,4.101135,6.989014,6.383484,10.338257c0.726135,1.065674,2.014404,1.791077,3.143921,2.520264
	c0.541077,0.349121,1.776367,0.642212,1.901062,0.448425c0.697815-1.085571,1.67981-2.361572,1.605835-3.510864
	c-0.559631-8.696045-7.304993-14.447815-10.606262-21.817139c-10.025818-22.381348-26.318024-70.726685-27.41684-79.463257
	c-0.05658-0.449768,0.524384-0.670471,0.789459-0.302734c1.880524,2.608643,6.703003,9.197815,6.801239,9.699524
	c12.343048,25.308716,29.962128,47.284851,44.581146,71.143921c9.389771,15.324402,21.410217,28.409546,35.092957,39.879028
	c5.136536,4.305847,11.123474,8.063049,17.3396,10.489624c6.770996,2.643005,13.92926,7.306519,21.596802,3.561951
	c8.810242-4.302795,15.7995-11.051636,19.53894-20.216064c2.011169-4.929749,2.898132-10.480103,3.398254-15.83374
	c1.327942-14.220093-2.630249-27.976135-5.228882-41.686157c-4.462341-23.54248-9.601074-46.954712-16.207214-69.987762
	c-13.215271-46.076874-27.547119-91.834045-41.501587-137.697906c-2.979126-9.790894-6.317261-19.472595-9.407776-29.230499
	c-0.138672-0.437714,0.410645-1.300354,0.875977-1.652771c0.332336-0.25119,1.353455-0.195129,1.567444,0.093811
	c2.00061,2.700745,4.138,5.344147,5.778198,8.26123c14.729675,26.194824,29.326416,52.464386,44.071228,78.650269
	c2.339722,4.155701,5.216797,8.009491,7.857056,11.994873c16.587219,25.03833,32.782532,50.347595,49.864258,75.043793
	c22.486267,32.509521,42.51532,66.796021,69.035461,96.437256c2.684387,3.000366,4.39209,6.862427,6.649597,10.260193
	c2.642273,3.976624,5.042786,8.183838,8.151062,11.768188c13.85907,15.981079,25.844421,33.430176,39.411987,49.689148
	c13.227539,15.851257,28.192749,29.718628,42.32019,44.52594C839.902405,723.280945,843.25177,724.995361,847.294495,725.064087z
	 M438.653412,414.62854c-0.564148,0.09259-1.522827-0.289825-1.818848-0.769531
	c-9.653809-15.656921-19.84317-31.024017-28.688568-47.12851c-9.200073-16.750183-17.224243-34.155426-25.447601-51.424316
	c-1.683563-3.534729-2.01416-7.725311-2.848969-11.639069c-0.112366-0.525452,0.464813-1.70752,0.749786-1.716217
	c1.010834-0.031219,2.614166-0.029419,2.967316,0.567291c9.380219,15.844025,18.905334,31.613068,27.819733,47.719086
	c7.253113,13.104919,14.025604,26.497437,20.468506,40.021027c3.478577,7.301361,5.819366,15.144714,8.531158,22.364319
	C439.48642,413.71814,439.131714,414.550262,438.653412,414.62854z"/>
<path d="M289.189117,523.966431c-0.953156-3.234985-2.0784-6.431335-2.811584-9.715271
	c-0.766785-3.434784-5.952026-7.425934-0.500671-10.258728c4.02713-2.092682,7.68103,1.71106,10.741455,4.391846
	c11.947205,10.465149,20.162506,23.99353,29.718781,36.427979c9.9729,12.976135,19.259247,26.549988,31.727203,37.416199
	c2.059845,1.795105,3.858063,4.158936,6.240234,5.238525c2.266541,1.027283,5.677368,1.726868,7.59021,0.706116
	c1.833618-0.978638,3.164764-4.289001,3.360931-6.685608c0.600494-7.335083-3.673706-13.000793-7.743988-18.485657
	c-3.011261-4.058533-4.860657-8.218201-3.838501-13.307129c0.126923-0.632996,0.48587-1.335693,0.962708-1.740417
	c0.304993-0.259094,1.270966-0.258118,1.522552,0.013428c6.502594,7.021484,12.491272,14.346924,16.623993,23.153992
	c7.334381,15.629395,17.560852,29.145996,29.970367,41.24646c6.704529,6.537476,13.343842,11.595642,23.211639,10.59082
	c0.684021-0.069641,1.518036,1.332764,2.282074,2.050537c-1.020386,0.80658-1.927155,1.965027-3.087006,2.33905
	c-1.869965,0.603088-3.999298,1.224792-5.857727,0.904236c-9.775726-1.686462-17.841034-6.671936-24.495392-13.871582
	c-4.173889-4.515625-8.184448-9.212891-11.917358-14.096619c-4.271698-5.588928-7.722412-10.226013-15.639496-3.849548
	c-4.351715,3.504883-10.647369,1.685486-15.125519-2.32312c-8.132507-7.280151-17.853333-13.584473-23.690216-22.423279
	c-6.820679-10.328918-15.282562-8.738403-24.539825-8.528564c-2.800049,0.063599-3.490082,1.556946-3.952393,3.565735
	c-0.610504,2.654297-0.516449,5.568726-1.569946,8.006592c-5.849457,13.537231-20.110352,18.825684-32.045776,11.722961
	c-5.255219-3.127625-10.826965-6.414185-14.760559-10.930054c-8.481674-9.737488-16.79306-19.805359-23.759964-30.646729
	c-21.800705-33.925781-43.968887-67.692993-60.049576-104.906067c-3.791351-8.773041-7.24382-17.692413-11.044464-26.46106
	c-1.869705-4.312958-3.090012-10.060059-6.492569-12.340881c-10.467285-7.016724-7.884201-16.220551-5.971848-25.491241
	c1.307587-6.33844,7.845322-8.760376,12.47496-4.650818c4.590256,4.074158,9.138367,8.325653,12.990173,13.078461
	c12.46492,15.381866,24.133957,31.428711,36.97464,46.481232c19.079407,22.365326,37.264847,45.283508,53.09697,70.134338
	c5.345764,8.391266,9.395233,18.532623,19.627747,23.019867c0.187866,0.539063,0.279663,1.147339,0.599243,1.591797
	c0.196136,0.272949,0.740692,0.295654,1.128723,0.430603C290.489197,525.165283,289.83905,524.565796,289.189117,523.966431z
	 M301.557739,528.109985c-0.533783-0.371521-1.067566-0.743103-1.601563-1.114563
	c0.608002,0.296326,1.216034,0.592834,1.824036,0.88916c1.583527,5.729065,2.940033,11.533997,4.820282,17.164063
	c1.604095,4.803589,5.806549,7.138,10.257355,8.824951c1.014343,0.384277,2.813599,0.350525,3.421875-0.284912
	c0.67923-0.709656,0.913269-2.549011,0.481079-3.509216C316.597717,540.833496,311.304138,532.503723,301.557739,528.109985z
	 M300.859161,565.737549c-2.45816-5.437866-2.487762-13.737305-8.22583-20.521851
	c-7.928101-9.373535-15.171692-19.355957-22.30188-29.367371c-17.020065-23.898163-31.89476-49.203278-52.272232-70.837799
	c-16.31572-17.321808-30.006485-37.109589-44.994537-55.696228c-2.095474-2.599152-4.917603-4.624237-7.485886-6.818542
	c-0.394806-0.337494-1.362534-0.393799-1.837357-0.145355c-0.540543,0.282806-1.214279,1.097778-1.156845,1.60495
	c0.302505,2.668365,0.295486,5.542542,1.346481,7.926361c5.496017,12.464661,10.342621,25.12851,17.70961,36.854095
	c7.582199,12.068359,12.309402,25.893829,19.371872,38.333801c14.502213,25.544891,30.115845,50.461334,44.492386,76.074066
	c6.897415,12.288452,16.985962,21.345703,26.845215,30.749817c2.860504,2.728333,6.900696,4.445435,10.670715,5.947021
	C290.57901,582.850891,300.666016,575.953857,300.859161,565.737549z"/>
</svg>
